<svg id="Capa_1" enable-background="new 0 0 511.798 511.798" height="512" viewBox="0 0 511.798 511.798" width="512" xmlns="http://www.w3.org/2000/svg"><path d="m150.316 203.722c1.75 0 3.508-.609 4.93-1.851 2.704-2.361 5.596-4.556 8.596-6.523 3.464-2.271 4.43-6.92 2.159-10.384s-6.921-4.432-10.385-2.159c-3.573 2.343-7.017 4.956-10.237 7.768-3.12 2.725-3.44 7.463-.716 10.583 1.483 1.698 3.563 2.566 5.653 2.566z"/><path d="m132.556 388.715c-3.369 2.41-4.145 7.096-1.734 10.464 2.953 4.125 6.27 8.041 9.861 11.641 1.465 1.468 3.387 2.202 5.309 2.202 1.917 0 3.833-.73 5.297-2.19 2.932-2.926 2.938-7.675.012-10.607-3.016-3.022-5.803-6.312-8.281-9.775-2.41-3.369-7.095-4.146-10.464-1.735z"/><path d="m504.298 351.931h-78.39v-24.523c0-6.813-5.544-12.356-12.357-12.356h-13.655c-5.083 0-9.218-4.136-9.218-9.219s4.135-9.218 9.218-9.218h13.655c6.813 0 12.357-5.544 12.357-12.357v-24.523h78.39c4.143 0 7.5-3.357 7.5-7.5s-3.357-7.5-7.5-7.5h-81.363c-3.163-4.721-8.543-7.836-14.639-7.836h-43.781c-4.357-25.104-26.285-44.26-52.615-44.26h-27.037c-2.27-2.382-4.611-4.703-6.988-6.927-13.637-12.756-24.389-27.818-31.958-44.769l-12.1-27.1c-3.095-6.93-9.142-11.948-16.262-13.87 3.637-7.56 5.583-15.899 5.583-24.383 0-30.985-25.209-56.194-56.195-56.194s-56.194 25.209-56.194 56.194c0 8.485 1.946 16.824 5.583 24.383-7.12 1.922-13.167 6.941-16.262 13.871l-12.1 27.099c-7.568 16.949-18.321 32.012-31.958 44.77-35.597 33.299-56.012 81.108-56.012 131.168 0 96.783 74.891 175.521 166.943 175.521 48.819 0 94.717-22.196 126.511-61.018h20.7c28.211 0 51.163-22.951 51.163-51.163v-5.454h42.979c6.097 0 11.477-3.115 14.639-7.836h81.363c4.143 0 7.5-3.357 7.5-7.5s-3.357-7.5-7.5-7.5zm-284.177-231.971 12.1 27.1c7.607 17.035 18.121 32.339 31.274 45.579h-41.069c-.69-1.585-1.392-3.137-2.101-4.644-6.067-12.889-10.865-28.177-14.268-45.479l-5.741-28.414h10.77c3.899-.001 7.445 2.299 9.035 5.858zm-13.656 293.188h10.19c-1.047 3.451-2.144 6.791-3.291 10h-6.899c-12.871 0-25.634-3.217-36.908-9.303-3.642-1.968-8.193-.608-10.162 3.037-1.968 3.645-.608 8.194 3.037 10.162 13.456 7.264 28.683 11.104 44.033 11.104h.771c-11.279 24.197-25.643 38.254-40.293 38.254-30.288 0-62.716-64.1-62.716-159.521 0-46.926 8.349-91.574 22.906-122.497 6.591-13.999 11.774-30.464 15.399-48.897l6.341-31.385h36.14l6.334 31.347c1.563 7.948 3.415 15.521 5.541 22.689-5.802.597-11.526 1.729-17.103 3.402-3.967 1.19-6.218 5.372-5.028 9.339.975 3.249 3.955 5.347 7.181 5.347.714 0 1.44-.103 2.159-.318 5.758-1.728 11.707-2.765 17.738-3.121 1.303 3.407 2.678 6.696 4.123 9.865-37.245.275-67.463 30.649-67.463 67.958v84.567c0 37.479 30.491 67.971 67.97 67.971zm-52.584-337.557c0-7.203 5.859-13.063 13.062-13.063s13.062 5.859 13.062 13.063-5.859 13.063-13.062 13.063-13.062-5.86-13.062-13.063zm13.062-41.195c22.715 0 41.195 18.479 41.195 41.194 0 8.417-2.599 16.644-7.37 23.511h-18.531c7.679-5.013 12.769-13.676 12.769-23.511 0-15.474-12.588-28.063-28.062-28.063s-28.062 12.589-28.062 28.063c0 9.835 5.089 18.498 12.769 23.511h-18.531c-4.771-6.866-7.37-15.092-7.37-23.511-.001-22.714 18.479-41.194 41.193-41.194zm-151.943 282.485c0-45.924 18.683-89.74 51.258-120.214 15.107-14.132 27.02-30.822 35.408-49.608l12.101-27.099c1.589-3.559 5.135-5.858 9.033-5.858h6.601.021 4.149l-5.749 28.452c-3.395 17.266-8.193 32.554-14.26 45.441-15.465 32.852-24.334 79.829-24.334 128.886 0 45.796 7.513 88.846 21.154 121.221 6.074 14.415 13.136 26.101 20.907 34.826-66.635-16.994-116.289-80.505-116.289-156.047zm187.837 155.991c1.6-1.794 3.17-3.71 4.703-5.754 6.686-8.916 12.718-20.225 17.865-33.388.127-.28.242-.566.333-.864 2.386-6.187 4.576-12.779 6.55-19.718h11.201c.584 0 1.151-.073 1.697-.2 6.89 9.177 17.131 15.691 28.886 17.74-19.797 20.824-44.416 35.321-71.235 42.184zm205.459-113.105h-42.979v-7.426c0-4.143-3.357-7.5-7.5-7.5s-7.5 3.357-7.5 7.5v27.88c0 19.94-16.223 36.163-36.163 36.163h-32.164c-17.094 0-31.001-13.907-31.001-31.001v-49.856c0-16.373 13.32-29.693 29.693-29.693 14.767 0 26.78 12.014 26.78 26.781v15.248c0 9.093-4.967 17.434-12.961 21.767l-5.114 2.771c-3.642 1.974-4.994 6.525-3.021 10.167 1.973 3.641 6.524 4.993 10.167 3.021l5.114-2.771c12.839-6.958 20.814-20.352 20.814-34.954v-15.248c0-15.011-7.96-28.193-19.878-35.561v-30.07c0-25.353-20.625-45.978-45.977-45.978h-10.241c-4.142 0-7.5 3.357-7.5 7.5s3.358 7.5 7.5 7.5h10.241c17.08 0 30.977 13.896 30.977 30.978v24.43c-2.247-.375-4.551-.581-6.902-.581-24.644 0-44.693 20.05-44.693 44.693v49.856c0 4.429.642 8.708 1.816 12.765h-31.339c-29.208 0-52.971-23.763-52.971-52.972v-84.567c0-29.208 23.763-52.971 52.971-52.971h10.951c.009 0 .018.002.026.002.014 0 .028-.002.041-.002h94.417c21.184 0 38.417 17.233 38.417 38.417v47.369c0 4.143 3.357 7.5 7.5 7.5s7.5-3.357 7.5-7.5v-41.526h42.979c1.44 0 2.612 1.172 2.612 2.612v27.104h-11.013c-13.354 0-24.218 10.864-24.218 24.218s10.864 24.219 24.218 24.219h11.013v27.104c.001 1.44-1.171 2.612-2.612 2.612z"/><path d="m375.283 195.837h85.015c4.143 0 7.5-3.357 7.5-7.5s-3.357-7.5-7.5-7.5h-85.015c-4.143 0-7.5 3.357-7.5 7.5s3.357 7.5 7.5 7.5z"/><path d="m436.854 219.802c0 4.143 3.357 7.5 7.5 7.5h32.051c4.143 0 7.5-3.357 7.5-7.5s-3.357-7.5-7.5-7.5h-32.051c-4.143 0-7.5 3.358-7.5 7.5z"/><path d="m502.804 425.829h-85.014c-4.143 0-7.5 3.357-7.5 7.5s3.357 7.5 7.5 7.5h85.014c4.143 0 7.5-3.357 7.5-7.5s-3.357-7.5-7.5-7.5z"/><path d="m421.872 401.863c0-4.143-3.357-7.5-7.5-7.5h-32.051c-4.143 0-7.5 3.357-7.5 7.5s3.357 7.5 7.5 7.5h32.051c4.142 0 7.5-3.357 7.5-7.5z"/><path d="m456.865 409.363c4.143 0 7.5-3.357 7.5-7.5s-3.357-7.5-7.5-7.5h-14.27c-4.143 0-7.5 3.357-7.5 7.5s3.357 7.5 7.5 7.5z"/><path d="m301.849 159.99c1.608 3.8 5.167 6.322 9.285 6.583l31.825 2.013h.001c.225.014.449.021.673.021 2.732 0 5.397-1.045 7.399-2.922 2.182-2.045 3.435-4.937 3.439-7.935.017-12.17-4.604-23.481-13.735-33.618-2.097-2.328-5.116-3.657-8.221-3.599-3.113.041-6.059 1.423-8.08 3.79l-20.852 24.417c-2.678 3.139-3.343 7.449-1.734 11.25zm30.757-22.136c3.646 4.945 5.817 10.058 6.568 15.462l-18.759-1.187z"/><path d="m271.96 138.42c1.387 3.888 4.794 6.611 8.892 7.108.445.054.888.081 1.328.081 3.609 0 6.976-1.788 9.005-4.855l17.592-26.598c0-.001 0-.001 0-.001 1.638-2.478 2.186-5.556 1.503-8.446-.688-2.909-2.57-5.436-5.168-6.932-10.546-6.074-22.654-7.699-35.995-4.828-3.063.66-5.691 2.605-7.213 5.338-1.514 2.721-1.782 5.962-.735 8.894zm21.689-28.583-10.368 15.677-6.31-17.681c6.104-.697 11.618-.036 16.678 2.004z"/></svg>