<svg id="cup-tools" enable-background="new 0 0 300 300" height="512" viewBox="0 0 300 300" width="512" xmlns="http://www.w3.org/2000/svg"><g><path d="m51.794 72.162c0-2.502-2.028-4.53-4.53-4.53s-4.53 2.028-4.53 4.53c0 2.501 2.028 4.529 4.53 4.529s4.53-2.028 4.53-4.529z"/><path d="m183.265 52.691c2.501 0 4.53-2.028 4.53-4.529 0-2.502-2.028-4.53-4.53-4.53s-4.53 2.028-4.53 4.53c0 2.501 2.028 4.529 4.53 4.529z"/><path d="m130.677 107.253c.613 0 1.236-.141 1.82-.439 4.898-2.51 8.338-7.043 9.438-12.439.441-2.166-.957-4.277-3.121-4.719-2.158-.426-4.275.961-4.719 3.121-.611 3.002-2.523 5.521-5.246 6.916-1.965 1.008-2.742 3.418-1.736 5.385.708 1.38 2.109 2.175 3.564 2.175z"/><path d="m241.357 186.162h-16.092v-8c0-2.209-1.791-4-4-4h-5.983l10.63-90.404c.32-2.727-.439-5.414-2.141-7.568s-4.141-3.518-6.867-3.838l-19.311-2.271c-2.744-.33-5.416.441-7.568 2.141-2.156 1.701-3.52 4.141-3.84 6.867l-11.178 95.074h-12.944l11.21-26.137c2.135-4.977 2.203-10.486.193-15.516-2.01-5.027-5.857-8.973-10.834-11.107-4.975-2.137-10.484-2.209-15.516-.193-5.029 2.01-8.975 5.857-11.109 10.834l-18.066 42.119h-2.803l14.988-54.203c10.196-1.925 19.077-9.17 22.484-19.721 1.033-3.201 1.459-7.354 1.262-12.342-.135-3.506-.805-6.896-1.422-9.803-.666-3.133-.98-6.223-.959-9.447.141-21.666 17.141-35.543 17.305-35.674 1.457-1.158 1.924-3.168 1.125-4.85-.801-1.684-2.672-2.588-4.469-2.191-21.794 4.777-39.511 13.396-52.66 25.618-.005.004-.009.008-.013.012-9.86 9.164-15.005 18.358-17.584 24.458-2.512 5.941-3.354 11.715-2.498 17.162.832 5.304 3.088 10.159 6.342 14.32l-8.15 21.997-2.417-6.894c-1.791-5.111-5.465-9.219-10.346-11.566-4.883-2.348-10.383-2.654-15.494-.863-5.109 1.793-9.217 5.467-11.564 10.348s-2.652 10.383-.861 15.492l5.383 15.356v.002c0 .001.001.001.001.002l4.784 13.647v.003c0 .001.001.002.002.004l3.201 9.133h-14.313c-2.209 0-4 1.791-4 4v60.574c0 19.533 15.893 35.426 35.426 35.426h109.148c19.533 0 35.426-15.893 35.426-35.426v-.574h16.092c8.771 0 15.908-7.137 15.908-15.908v-20.185c0-8.772-7.137-15.908-15.908-15.908zm-26.395-77.792-1.401 11.918-23.836-2.802 1.401-11.918zm-18.303-30.345 19.311 2.271c.604.07 1.145.373 1.521.85.377.479.545 1.074.475 1.678l-2.07 17.601-23.836-2.802 2.07-17.602c.148-1.246 1.277-2.137 2.529-1.996zm-7.868 47.406 23.836 2.802-5.343 45.44-24.164-.01zm-53.424 28.396 22.563 9.678-2.549 5.943-22.563-9.677zm7.992-18.632c1.293-3.012 3.682-5.342 6.727-6.559 3.045-1.215 6.379-1.172 9.395.117 3.012 1.293 5.342 3.682 6.559 6.725 1.217 3.045 1.176 6.381-.117 9.395l-4.839 11.281-22.563-9.678zm-13.695 31.927 16.412 7.039h-19.431zm-46.793 7.04 3.084-8.325 21.285 6.871-.402 1.454zm32.9-55.065c1.979.639 3.974.977 5.966 1.184l-4.039 14.608-18.172-5.679 5.776-15.589c3.086 2.316 6.576 4.219 10.469 5.476zm-.207 23.508-6.19 22.385-20.637-6.662 8.005-21.606zm-51.101 9.897 20.574-7.211-2.917 7.874-15.519 5.439zm79.77-91.934c-1.022-1.262-2.306-2.307-3.82-2.959-2.547-1.096-5.465-1.094-8.012.006l-5.998 2.594c-1.035.441-2.17.443-3.201.002-1.033-.445-1.814-1.271-2.199-2.328l-.798-2.191c9.099-7.899 20.454-14.092 33.954-18.45-4.117 5.713-8.297 13.63-9.926 23.326zm-41.671 18.566c1.876-4.437 5.355-10.755 11.452-17.432 1.254 2.59 3.363 4.709 6.023 5.854 3.033 1.309 6.512 1.305 9.541-.004l6-2.594c.725-.316 1.357-.135 1.672-.002.311.135.875.471 1.145 1.213.937 2.575 2.857 4.541 5.248 5.594.146 2.69.427 5.371.985 7.994.547 2.58 1.143 5.574 1.254 8.449.156 3.992-.148 7.303-.883 9.574-1.744 5.404-5.49 9.807-10.547 12.395-5.057 2.584-10.818 3.053-16.223 1.309-9.604-3.102-16.193-10.408-17.629-19.543-.62-3.951.04-8.26 1.962-12.807zm-44.286 44.856c1.422-2.955 3.908-5.18 7.002-6.264 3.096-1.092 6.422-.898 9.379.521 2.955 1.422 5.18 3.908 6.264 7.002l4.06 11.584-23.164 8.119-4.06-11.583c-1.086-3.094-.9-6.424.519-9.379zm10.973 42.164 9.262-3.246-4.169 11.254h-2.286zm148.016 72.582c0 15.123-12.303 27.426-27.426 27.426h-109.148c-15.123 0-27.426-12.303-27.426-27.426v-56.574h164v8 44zm32-16.483c0 4.361-3.547 7.908-7.908 7.908h-16.092v-36h16.092c4.361 0 7.908 3.547 7.908 7.908z"/><path d="m135.265 192.162c-16.543 0-30 13.457-30 30s13.457 30 30 30 30-13.457 30-30-13.457-30-30-30zm0 52c-12.131 0-22-9.869-22-22s9.869-22 22-22 22 9.869 22 22-9.869 22-22 22z"/><path d="m142.946 227.382c-4.111 3.434-10.438 3.633-14.758.473-1.783-1.303-4.287-.912-5.59.871s-.912 4.285.871 5.59c3.443 2.516 7.521 3.846 11.795 3.846 4.676 0 9.225-1.646 12.807-4.639 1.697-1.414 1.924-3.938.508-5.633-1.416-1.697-3.939-1.922-5.633-.508z"/><circle cx="125.265" cy="218.162" r="4"/><circle cx="145.265" cy="218.162" r="4"/></g></svg>