<?xml version="1.0"?>
<svg xmlns="http://www.w3.org/2000/svg" id="Outline" viewBox="0 0 512 512" width="512" height="512"><path d="M416,496a40.045,40.045,0,0,0,40-40V56a40.045,40.045,0,0,0-40-40H96A40.045,40.045,0,0,0,56,56V456a40.045,40.045,0,0,0,40,40ZM72,456V56A24.028,24.028,0,0,1,96,32H416a24.028,24.028,0,0,1,24,24V456a24.028,24.028,0,0,1-24,24H96A24.028,24.028,0,0,1,72,456Z"/><path d="M416,432a8,8,0,0,0,8-8V56a8,8,0,0,0-8-8H96a8,8,0,0,0-8,8V424a8,8,0,0,0,8,8ZM136,64h48v88l-19.2-14.4a8,8,0,0,0-9.6,0L136,152Zm-32,0h16V168a8,8,0,0,0,12.8,6.4L160,154l27.2,20.4A8,8,0,0,0,200,168V64H408V416H104Z"/><path d="M384,160H224a8,8,0,0,0,0,16H384a8,8,0,0,0,0-16Z"/><path d="M384,192H128a8,8,0,0,0,0,16H384a8,8,0,0,0,0-16Z"/><path d="M128,240h64a8,8,0,0,0,0-16H128a8,8,0,0,0,0,16Z"/><path d="M304,240a8,8,0,0,0,0-16H224a8,8,0,0,0,0,16Z"/><path d="M384,224H336a8,8,0,0,0,0,16h48a8,8,0,0,0,0-16Z"/><path d="M384,320H320a8,8,0,0,0,0,16h64a8,8,0,0,0,0-16Z"/><path d="M208,336h80a8,8,0,0,0,0-16H208a8,8,0,0,0,0,16Z"/><path d="M128,336h48a8,8,0,0,0,0-16H128a8,8,0,0,0,0,16Z"/><path d="M128,272H256a8,8,0,0,0,0-16H128a8,8,0,0,0,0,16Z"/><path d="M368,352H128a8,8,0,0,0,0,16H368a8,8,0,0,0,0-16Z"/><path d="M384,256H288a8,8,0,0,0,0,16h96a8,8,0,0,0,0-16Z"/><path d="M128,304h56a8,8,0,0,0,0-16H128a8,8,0,0,0,0,16Z"/><path d="M184,384H128a8,8,0,0,0,0,16h56a8,8,0,0,0,0-16Z"/><path d="M384,288H216a8,8,0,0,0,0,16H384a8,8,0,0,0,0-16Z"/><path d="M256,384H216a8,8,0,0,0,0,16h40a8,8,0,0,0,0-16Z"/><path d="M224,112h64a8,8,0,0,0,0-16H224a8,8,0,0,0,0,16Z"/><path d="M384,128H224a8,8,0,0,0,0,16H384a8,8,0,0,0,0-16Z"/></svg>
