<?xml version="1.0" encoding="iso-8859-1"?>
<!-- Generator: Adobe Illustrator 18.0.0, SVG Export Plug-In . SVG Version: 6.00 Build 0)  -->
<!DOCTYPE svg PUBLIC "-//W3C//DTD SVG 1.1//EN" "http://www.w3.org/Graphics/SVG/1.1/DTD/svg11.dtd">
<svg version="1.1" id="Capa_1" xmlns="http://www.w3.org/2000/svg" xmlns:xlink="http://www.w3.org/1999/xlink" x="0px" y="0px"
	 viewBox="0 0 475.352 475.352" style="enable-background:new 0 0 475.352 475.352;" xml:space="preserve">
<path d="M392.863,204.686L334.823,36.009l30.779-20.468L355.26,0L47.467,204.686H16.676v120h24.853l5.334,12.001l10.242,126.999
	h7.69v7.666h8v-7.666h9.168l4.165-139h83.268l5.93,68.54h4.963v5.497h8v-5.497h6.02l2.391-68.54h12.322V429.3
	c-6.729,1.901-11.68,8.081-11.68,15.41v23.976h16v2.666c0,2.209,1.791,4,4,4s4-1.791,4-4v-2.666h10.667v2.666c0,2.209,1.791,4,4,4
	s4-1.791,4-4v-2.666h10.667v2.666c0,2.209,1.791,4,4,4s4-1.791,4-4v-2.666h16V444.71c0-7.328-4.951-13.509-11.68-15.41V324.686
	h126.228l4.164,139h9.169v7.666h8v-7.666h7.69l10.242-126.999l5.334-12.001h24.853v-120H392.863z M450.676,287.686h-11.5v-75h11.5
	V287.686z M431.176,212.686v5.5h-387v-5.5H431.176z M156.884,179.788c-0.128-1.428,0.387-2.821,1.412-3.822
	c1.026-1.001,2.43-1.49,3.855-1.32c9.498,1.081,19.014,0.456,28.285-1.861c32.43-8.109,66.714-8.109,99.146,0
	c9.271,2.316,18.788,2.941,28.283,1.861c1.433-0.156,2.83,0.318,3.856,1.32c1.025,1.001,1.54,2.395,1.412,3.822
	c-0.792,8.858,2.87,17.479,9.796,23.059l2.283,1.839H144.805l2.282-1.839C154.014,197.267,157.676,188.646,156.884,179.788z
	 M44.176,275.186v-49h387v49H44.176z M44.176,283.186h8.458v4.5h-8.458V283.186z M60.634,283.186h8.458v4.5h-8.458V283.186z
	 M77.093,283.186h8.458v4.5h-8.458V283.186z M93.551,283.186h8.458v4.5h-8.458V283.186z M110.009,283.186h8.458v4.5h-8.458V283.186z
	 M126.468,283.186h8.458v4.5h-8.458V283.186z M142.926,283.186h8.458v4.5h-8.458V283.186z M159.384,283.186h8.458v4.5h-8.458
	V283.186z M175.843,283.186h8.458v4.5h-8.458V283.186z M192.301,283.186h8.458v4.5h-8.458V283.186z M208.759,283.186h8.458v4.5
	h-8.458V283.186z M225.218,283.186h8.458v4.5h-8.458V283.186z M241.676,283.186h8.458v4.5h-8.458V283.186z M258.134,283.186h8.458
	v4.5h-8.458V283.186z M274.593,283.186h8.458v4.5h-8.458V283.186z M291.051,283.186h8.458v4.5h-8.458V283.186z M307.509,283.186
	h8.458v4.5h-8.458V283.186z M323.968,283.186h8.458v4.5h-8.458V283.186z M340.426,283.186h8.458v4.5h-8.458V283.186z
	 M356.884,283.186h8.458v4.5h-8.458V283.186z M373.343,283.186h8.458v4.5h-8.458V283.186z M389.801,283.186h8.458v4.5h-8.458
	V283.186z M406.259,283.186h8.458v4.5h-8.458V283.186z M422.718,283.186h8.458v4.5h-8.458V283.186z M384.402,204.686h-36.436
	l-10.017-8.069c-4.842-3.899-7.401-9.924-6.847-16.115c0.343-3.832-1.039-7.572-3.793-10.26c-2.754-2.689-6.522-3.977-10.35-3.545
	c-8.541,0.976-17.099,0.41-25.438-1.674c-33.699-8.425-69.326-8.425-103.025,0c-8.341,2.084-16.9,2.648-25.439,1.674
	c-3.815-0.438-7.595,0.856-10.349,3.545c-2.754,2.688-4.136,6.428-3.793,10.26c0.555,6.191-2.005,12.216-6.847,16.115l-10.016,8.069
	H81.175L327.939,40.588L384.402,204.686z M353.031,11.09l1.478,2.221L66.727,204.686h-4.812L353.031,11.09z M36.176,212.686v75
	h-11.5v-75H36.176z M55.131,339.686h22.864L74.824,437.1H62.987L55.131,339.686z M64.485,455.686L63.632,445.1h10.932l-0.345,10.586
	H64.485z M78.128,331.686H53.395l-3.111-7h27.845V331.686z M182.664,385.226l-0.373-4.306h4.441l-0.15,4.306H182.664z
	 M187.011,372.92h-5.412l-4.173-48.234h11.267L187.011,372.92z M227.663,324.686h16.691v104h-16.691V324.686z M219.663,428.686
	h-2.642v-104h2.642V428.686z M266.676,444.71v15.976h-8v-8c0-2.209-1.791-4-4-4s-4,1.791-4,4v8h-10.667v-8c0-2.209-1.791-4-4-4
	s-4,1.791-4,4v8h-10.667v-8c0-2.209-1.791-4-4-4s-4,1.791-4,4v8h-8V444.71c0-4.425,3.601-8.024,8.025-8.024h14.296h16.691h14.296
	C263.075,436.686,266.676,440.285,266.676,444.71z M254.996,428.686h-2.642v-104h2.642V428.686z M401.132,455.686l-0.345-10.586
	h10.933l-0.854,10.586H401.132z M412.365,437.1h-11.838l-3.171-97.414h22.865L412.365,437.1z M421.957,331.686h-24.733v-7h27.845
	L421.957,331.686z M24.676,316.686v-21h426v21H24.676z"/>
<g>
</g>
<g>
</g>
<g>
</g>
<g>
</g>
<g>
</g>
<g>
</g>
<g>
</g>
<g>
</g>
<g>
</g>
<g>
</g>
<g>
</g>
<g>
</g>
<g>
</g>
<g>
</g>
<g>
</g>
</svg>
